<svg width="256" height="256" viewBox="0 0 256 256" fill="none" xmlns="http://www.w3.org/2000/svg">
<path d="M120.744 43.3906L121.819 37.4876C119.25 37.0199 116.674 38.2669 115.447 40.5718C114.221 42.8766 114.626 45.71 116.448 47.5794L120.744 43.3906ZM54.8533 167.026L55.9282 161.123C53.3595 160.655 50.7833 161.902 49.5566 164.207C48.33 166.512 48.7347 169.345 50.5574 171.214L54.8533 167.026ZM135.619 94.7065C135.619 131.992 105.393 162.217 68.1082 162.217V174.217C112.021 174.217 147.619 138.619 147.619 94.7065H135.619ZM116.448 47.5794C128.317 59.7512 135.619 76.37 135.619 94.7065H147.619C147.619 73.1155 139.005 53.5241 125.04 39.2018L116.448 47.5794ZM119.669 49.2935C151.14 55.0243 175 82.5869 175 115.71H187C187 76.6854 158.892 44.2386 121.819 37.4876L119.669 49.2935ZM175 115.71C175 152.995 144.774 183.221 107.489 183.221V195.221C151.402 195.221 187 159.622 187 115.71H175ZM107.489 183.221C88.5371 183.221 71.4178 175.419 59.1491 162.837L50.5574 171.214C64.9915 186.017 85.1709 195.221 107.489 195.221V183.221ZM68.1082 162.217C63.9449 162.217 59.8747 161.841 55.9282 161.123L53.7784 172.929C58.4309 173.776 63.2206 174.217 68.1082 174.217V162.217Z" fill="white"/>
</svg>
